<?xml version="1.0" standalone="no"?><!DOCTYPE svg PUBLIC "-//W3C//DTD SVG 1.1//EN" "http://www.w3.org/Graphics/SVG/1.1/DTD/svg11.dtd"><svg xmlns:xlink="http://www.w3.org/1999/xlink" version="1.1" class="highcharts-root" style="font-family:'Flexo-Medium', Arial, sans-serif;font-size:12px;" xmlns="http://www.w3.org/2000/svg" width="1280" height="643" viewBox="0 0 1280 643"><desc>Created with Highcharts 7.0.3</desc><defs><clipPath id="highcharts-hkx0mim-34293"><rect x="0" y="0" width="1067" height="491" fill="none"></rect></clipPath><pattern id="highcharts-default-pattern-0" patternUnits="userSpaceOnUse" width="10" height="10" x="0" y="0"><path d="M 0 0 L 10 10 M 9 -1 L 11 1 M -1 9 L 1 11" stroke="#7cb5ec" stroke-width="2"></path></pattern><pattern id="highcharts-default-pattern-1" patternUnits="userSpaceOnUse" width="10" height="10" x="0" y="0"><path d="M 0 10 L 10 0 M -1 1 L 1 -1 M 9 11 L 11 9" stroke="#434348" stroke-width="2"></path></pattern><pattern id="highcharts-default-pattern-2" patternUnits="userSpaceOnUse" width="10" height="10" x="0" y="0"><path d="M 3 0 L 3 10 M 8 0 L 8 10" stroke="#90ed7d" stroke-width="2"></path></pattern><pattern id="highcharts-default-pattern-3" patternUnits="userSpaceOnUse" width="10" height="10" x="0" y="0"><path d="M 0 3 L 10 3 M 0 8 L 10 8" stroke="#f7a35c" stroke-width="2"></path></pattern><pattern id="highcharts-default-pattern-4" patternUnits="userSpaceOnUse" width="10" height="10" x="0" y="0"><path d="M 0 3 L 5 3 L 5 0 M 5 10 L 5 7 L 10 7" stroke="#8085e9" stroke-width="2"></path></pattern><pattern id="highcharts-default-pattern-5" patternUnits="userSpaceOnUse" width="10" height="10" x="0" y="0"><path d="M 3 3 L 8 3 L 8 8 L 3 8 Z" stroke="#f15c80" stroke-width="2"></path></pattern><pattern id="highcharts-default-pattern-6" patternUnits="userSpaceOnUse" width="10" height="10" x="0" y="0"><path d="M 5 5 m -4 0 a 4 4 0 1 1 8 0 a 4 4 0 1 1 -8 0" stroke="#e4d354" stroke-width="2"></path></pattern><pattern id="highcharts-default-pattern-7" patternUnits="userSpaceOnUse" width="10" height="10" x="0" y="0"><path d="M 10 3 L 5 3 L 5 0 M 5 10 L 5 7 L 0 7" stroke="#2b908f" stroke-width="2"></path></pattern><pattern id="highcharts-default-pattern-8" patternUnits="userSpaceOnUse" width="10" height="10" x="0" y="0"><path d="M 2 5 L 5 2 L 8 5 L 5 8 Z" stroke="#f45b5b" stroke-width="2"></path></pattern><pattern id="highcharts-default-pattern-9" patternUnits="userSpaceOnUse" width="10" height="10" x="0" y="0"><path d="M 0 0 L 5 10 L 10 0" stroke="#91e8e1" stroke-width="2"></path></pattern></defs><rect fill="#fff" class="highcharts-background" x="0" y="0" width="1280" height="643" rx="0" ry="0"></rect><rect fill="none" class="highcharts-plot-background" x="116" y="30" width="1067" height="491"></rect><g class="highcharts-grid highcharts-xaxis-grid " data-z-index="1"><path fill="none" data-z-index="1" class="highcharts-grid-line" d="M 154.5 30 L 154.5 521" opacity="1"></path><path fill="none" data-z-index="1" class="highcharts-grid-line" d="M 194.5 30 L 194.5 521" opacity="1"></path><path fill="none" data-z-index="1" class="highcharts-grid-line" d="M 234.5 30 L 234.5 521" opacity="1"></path><path fill="none" data-z-index="1" class="highcharts-grid-line" d="M 274.5 30 L 274.5 521" opacity="1"></path><path fill="none" data-z-index="1" class="highcharts-grid-line" d="M 315.5 30 L 315.5 521" opacity="1"></path><path fill="none" data-z-index="1" class="highcharts-grid-line" d="M 355.5 30 L 355.5 521" opacity="1"></path><path fill="none" data-z-index="1" class="highcharts-grid-line" d="M 395.5 30 L 395.5 521" opacity="1"></path><path fill="none" data-z-index="1" class="highcharts-grid-line" d="M 435.5 30 L 435.5 521" opacity="1"></path><path fill="none" data-z-index="1" class="highcharts-grid-line" d="M 475.5 30 L 475.5 521" opacity="1"></path><path fill="none" data-z-index="1" class="highcharts-grid-line" d="M 515.5 30 L 515.5 521" opacity="1"></path><path fill="none" data-z-index="1" class="highcharts-grid-line" d="M 555.5 30 L 555.5 521" opacity="1"></path><path fill="none" data-z-index="1" class="highcharts-grid-line" d="M 595.5 30 L 595.5 521" opacity="1"></path><path fill="none" data-z-index="1" class="highcharts-grid-line" d="M 635.5 30 L 635.5 521" opacity="1"></path><path fill="none" data-z-index="1" class="highcharts-grid-line" d="M 676.5 30 L 676.5 521" opacity="1"></path><path fill="none" data-z-index="1" class="highcharts-grid-line" d="M 716.5 30 L 716.5 521" opacity="1"></path><path fill="none" data-z-index="1" class="highcharts-grid-line" d="M 756.5 30 L 756.5 521" opacity="1"></path><path fill="none" data-z-index="1" class="highcharts-grid-line" d="M 796.5 30 L 796.5 521" opacity="1"></path><path fill="none" data-z-index="1" class="highcharts-grid-line" d="M 836.5 30 L 836.5 521" opacity="1"></path><path fill="none" data-z-index="1" class="highcharts-grid-line" d="M 876.5 30 L 876.5 521" opacity="1"></path><path fill="none" data-z-index="1" class="highcharts-grid-line" d="M 916.5 30 L 916.5 521" opacity="1"></path><path fill="none" data-z-index="1" class="highcharts-grid-line" d="M 956.5 30 L 956.5 521" opacity="1"></path><path fill="none" data-z-index="1" class="highcharts-grid-line" d="M 997.5 30 L 997.5 521" opacity="1"></path><path fill="none" data-z-index="1" class="highcharts-grid-line" d="M 1037.5 30 L 1037.5 521" opacity="1"></path><path fill="none" data-z-index="1" class="highcharts-grid-line" d="M 1077.5 30 L 1077.5 521" opacity="1"></path><path fill="none" data-z-index="1" class="highcharts-grid-line" d="M 1117.5 30 L 1117.5 521" opacity="1"></path><path fill="none" data-z-index="1" class="highcharts-grid-line" d="M 1157.5 30 L 1157.5 521" opacity="1"></path></g><g class="highcharts-grid highcharts-yaxis-grid " data-z-index="1"><path fill="none" stroke="#e6e6e6" stroke-width="1" data-z-index="1" class="highcharts-grid-line" d="M 116 521.5 L 1183 521.5" opacity="1"></path><path fill="none" stroke="#e6e6e6" stroke-width="1" data-z-index="1" class="highcharts-grid-line" d="M 116 423.5 L 1183 423.5" opacity="1"></path><path fill="none" stroke="#e6e6e6" stroke-width="1" data-z-index="1" class="highcharts-grid-line" d="M 116 325.5 L 1183 325.5" opacity="1"></path><path fill="none" stroke="#e6e6e6" stroke-width="1" data-z-index="1" class="highcharts-grid-line" d="M 116 226.5 L 1183 226.5" opacity="1"></path><path fill="none" stroke="#e6e6e6" stroke-width="1" data-z-index="1" class="highcharts-grid-line" d="M 116 128.5 L 1183 128.5" opacity="1"></path><path fill="none" stroke="#e6e6e6" stroke-width="1" data-z-index="1" class="highcharts-grid-line" d="M 116 29.5 L 1183 29.5" opacity="1"></path></g><g class="highcharts-grid highcharts-yaxis-grid " data-z-index="1"><path fill="none" data-z-index="1" class="highcharts-grid-line" d="M 116 521.5 L 1183 521.5" opacity="1"></path><path fill="none" data-z-index="1" class="highcharts-grid-line" d="M 116 460.5 L 1183 460.5" opacity="1"></path><path fill="none" data-z-index="1" class="highcharts-grid-line" d="M 116 398.5 L 1183 398.5" opacity="1"></path><path fill="none" data-z-index="1" class="highcharts-grid-line" d="M 116 337.5 L 1183 337.5" opacity="1"></path><path fill="none" data-z-index="1" class="highcharts-grid-line" d="M 116 276.5 L 1183 276.5" opacity="1"></path><path fill="none" data-z-index="1" class="highcharts-grid-line" d="M 116 214.5 L 1183 214.5" opacity="1"></path><path fill="none" data-z-index="1" class="highcharts-grid-line" d="M 116 153.5 L 1183 153.5" opacity="1"></path><path fill="none" data-z-index="1" class="highcharts-grid-line" d="M 116 91.5 L 1183 91.5" opacity="1"></path><path fill="none" data-z-index="1" class="highcharts-grid-line" d="M 116 30.5 L 1183 30.5" opacity="1"></path></g><rect fill="none" class="highcharts-plot-border" data-z-index="1" x="116" y="30" width="1067" height="491"></rect><g class="highcharts-axis highcharts-xaxis " data-z-index="2"><path fill="none" class="highcharts-tick" stroke="#ccd6eb" stroke-width="1" d="M 154.5 521 L 154.5 531" opacity="1"></path><path fill="none" class="highcharts-tick" stroke="#ccd6eb" stroke-width="1" d="M 194.5 521 L 194.5 531" opacity="1"></path><path fill="none" class="highcharts-tick" stroke="#ccd6eb" stroke-width="1" d="M 234.5 521 L 234.5 531" opacity="1"></path><path fill="none" class="highcharts-tick" stroke="#ccd6eb" stroke-width="1" d="M 274.5 521 L 274.5 531" opacity="1"></path><path fill="none" class="highcharts-tick" stroke="#ccd6eb" stroke-width="1" d="M 315.5 521 L 315.5 531" opacity="1"></path><path fill="none" class="highcharts-tick" stroke="#ccd6eb" stroke-width="1" d="M 355.5 521 L 355.5 531" opacity="1"></path><path fill="none" class="highcharts-tick" stroke="#ccd6eb" stroke-width="1" d="M 395.5 521 L 395.5 531" opacity="1"></path><path fill="none" class="highcharts-tick" stroke="#ccd6eb" stroke-width="1" d="M 435.5 521 L 435.5 531" opacity="1"></path><path fill="none" class="highcharts-tick" stroke="#ccd6eb" stroke-width="1" d="M 475.5 521 L 475.5 531" opacity="1"></path><path fill="none" class="highcharts-tick" stroke="#ccd6eb" stroke-width="1" d="M 515.5 521 L 515.5 531" opacity="1"></path><path fill="none" class="highcharts-tick" stroke="#ccd6eb" stroke-width="1" d="M 555.5 521 L 555.5 531" opacity="1"></path><path fill="none" class="highcharts-tick" stroke="#ccd6eb" stroke-width="1" d="M 595.5 521 L 595.5 531" opacity="1"></path><path fill="none" class="highcharts-tick" stroke="#ccd6eb" stroke-width="1" d="M 635.5 521 L 635.5 531" opacity="1"></path><path fill="none" class="highcharts-tick" stroke="#ccd6eb" stroke-width="1" d="M 676.5 521 L 676.5 531" opacity="1"></path><path fill="none" class="highcharts-tick" stroke="#ccd6eb" stroke-width="1" d="M 716.5 521 L 716.5 531" opacity="1"></path><path fill="none" class="highcharts-tick" stroke="#ccd6eb" stroke-width="1" d="M 756.5 521 L 756.5 531" opacity="1"></path><path fill="none" class="highcharts-tick" stroke="#ccd6eb" stroke-width="1" d="M 796.5 521 L 796.5 531" opacity="1"></path><path fill="none" class="highcharts-tick" stroke="#ccd6eb" stroke-width="1" d="M 836.5 521 L 836.5 531" opacity="1"></path><path fill="none" class="highcharts-tick" stroke="#ccd6eb" stroke-width="1" d="M 876.5 521 L 876.5 531" opacity="1"></path><path fill="none" class="highcharts-tick" stroke="#ccd6eb" stroke-width="1" d="M 916.5 521 L 916.5 531" opacity="1"></path><path fill="none" class="highcharts-tick" stroke="#ccd6eb" stroke-width="1" d="M 956.5 521 L 956.5 531" opacity="1"></path><path fill="none" class="highcharts-tick" stroke="#ccd6eb" stroke-width="1" d="M 997.5 521 L 997.5 531" opacity="1"></path><path fill="none" class="highcharts-tick" stroke="#ccd6eb" stroke-width="1" d="M 1037.5 521 L 1037.5 531" opacity="1"></path><path fill="none" class="highcharts-tick" stroke="#ccd6eb" stroke-width="1" d="M 1077.5 521 L 1077.5 531" opacity="1"></path><path fill="none" class="highcharts-tick" stroke="#ccd6eb" stroke-width="1" d="M 1117.5 521 L 1117.5 531" opacity="1"></path><path fill="none" class="highcharts-tick" stroke="#ccd6eb" stroke-width="1" d="M 1157.5 521 L 1157.5 531" opacity="1"></path><path fill="none" class="highcharts-axis-line" stroke="#ccd6eb" stroke-width="1" data-z-index="7" d="M 116 521.5 L 1183 521.5"></path></g><g class="highcharts-axis highcharts-yaxis " data-z-index="2"><text x="49" data-z-index="7" text-anchor="middle" transform="translate(0,0) rotate(270 49 275.5)" class="highcharts-axis-title" style="color:#666666;fill:#666666;" y="275.5"><tspan>Emissionen der Stromerzeugung je Stunde</tspan></text><path fill="none" class="highcharts-axis-line" data-z-index="7" d="M 116 30 L 116 521"></path></g><g class="highcharts-axis highcharts-yaxis " data-z-index="2"><text x="1236" data-z-index="7" text-anchor="middle" transform="translate(0,0) rotate(90 1236 275.5)" class="highcharts-axis-title" style="color:#666666;fill:#666666;" y="275.5"><tspan>Strompreis je MWh</tspan></text><path fill="none" class="highcharts-axis-line" data-z-index="7" d="M 1183 30 L 1183 521"></path></g><g class="highcharts-series-group" data-z-index="3"><g data-z-index="0.1" class="highcharts-series highcharts-series-0 highcharts-area-series highcharts-color-0 " visibility="hidden" transform="translate(116,30) scale(1 1)" clip-path="url(#highcharts-hkx0mim-34293)"><path fill="rgb(124,181,236)" d="M 0 0" class="highcharts-area" data-z-index="0"></path></g><g data-z-index="0.1" class="highcharts-markers highcharts-series-0 highcharts-area-series highcharts-color-0 " visibility="hidden" transform="translate(116,30) scale(1 1)" clip-path="none"></g><g data-z-index="0.1" class="highcharts-series highcharts-series-1 highcharts-line-series " transform="translate(116,30) scale(1 1)" clip-path="url(#highcharts-hkx0mim-34293)"><path fill="none" d="M 10.460784313725 240.64114583333333 L 13.326752618856 275.4714583333333 L 16.192720923986 295.8786458333334 L 19.058689229116 227.75239583333337 L 21.924657534247 197.4740625 L 24.790625839377 196.34885416666668 L 27.656594144507 197.4229166666667 L 30.522562449637 230.3096875 L 33.388530754768 220.4385416666667 L 36.254499059898 263.09416666666664 L 39.120467365028 196.2977083333334 L 41.986435670158 217.62552083333333 L 44.852403975289 219.10875000000004 L 47.718372280419 196.45114583333333 L 50.584340585549 187.19375000000002 L 53.45030889068 223.40500000000003 L 56.31627719581 227.24093750000003 L 59.18224550094 169.4461458333334 L 62.04821380607 121.72708333333333 L 64.914182111201 119.01635416666676 L 67.780150416331 101.37104166666666 L 70.646118721461 197.98552083333334 L 73.512087026591 223.60958333333332 L 76.378055331722 233.531875 L 79.244023636852 223.30270833333333 L 82.109991941982 237.77697916666665 L 84.975960247113 270.05 L 87.841928552243 236.29375000000002 L 90.707896857373 252.40468750000002 L 93.573865162503 306.61927083333336 L 96.439833467634 306.61927083333336 L 99.305801772764 259.5651041666667 L 102.17177007789 283.5013541666667 L 105.03773838302 251.27947916666665 L 107.90370668815 233.42958333333337 L 110.76967499328 225.75770833333337 L 113.63564329842 284.8822916666667 L 116.50161160355 318.28052083333336 L 119.36757990868 298.4870833333333 L 122.23354821381 285.64947916666665 L 125.09951651894 243.81218750000002 L 127.96548482407 236.70291666666668 L 130.8314531292 222.0240625 L 133.69742143433 250.92145833333336 L 136.56338973946 289.6388541666667 L 139.42935804459 242.78927083333335 L 142.29532634972 202.69093750000002 L 145.16129465485 234.81052083333333 L 148.02726295998 225.75770833333337 L 150.89323126511 228.315 L 153.75919957024 295.6740625 L 156.62516787537 322.6279166666667 L 159.4911361805 270.10114583333336 L 162.35710448563 242.8404166666667 L 165.22307279076 245.75572916666667 L 168.08904109589 225.65541666666672 L 170.95500940102 225.91114583333336 L 173.82097770615 250.61458333333334 L 176.68694601128 274.44854166666664 L 179.55291431641 245.75572916666667 L 182.41888262154 240.38541666666669 L 185.28485092667 245.24427083333336 L 188.1508192318 224.06989583333336 L 191.01678753693 240.9991666666667 L 193.88275584206 249.94968750000004 L 196.74872414719 259.15593750000005 L 199.61469245232 217.77895833333332 L 202.48066075745 223.20041666666668 L 205.34662906258 236.54947916666669 L 208.21259736771 234.45250000000004 L 211.07856567284 225.45083333333332 L 213.94453397797 226.0134375 L 216.81050228311 250.97260416666668 L 219.67647058824 227.8546875 L 222.54243889337 229.38906250000002 L 225.4084071985 238.28843750000004 L 228.27437550363 226.93406250000004 L 231.14034380876 239.1579166666667 L 234.00631211389 242.6869791666667 L 236.87228041902 276.80125000000004 L 239.73824872415 238.8510416666667 L 242.60421702928 222.8935416666667 L 245.47018533441 233.02041666666668 L 248.33615363954 226.166875 L 251.20212194467 238.08385416666667 L 254.0680902498 265.4980208333333 L 256.93405855493 315.0071875 L 259.68061151401 360.47583333333336 L 262.54657981914 255.37114583333334 L 265.41254812427 229.18447916666668 L 268.2785164294 225.34854166666668 L 271.14448473453 227.08750000000003 L 274.01045303966 258.28645833333337 L 276.87642134479 277.77302083333336 L 279.74238964992 229.44020833333337 L 282.60835795505 230.82114583333333 L 285.47432626018 252.558125 L 288.34029456531 251.53520833333334 L 291.20626287045 223.25156250000003 L 294.07223117558 244.78395833333335 L 296.93819948071 269.4873958333333 L 299.80416778584 247.59697916666667 L 302.67013609097 223.20041666666668 L 305.5361043961 222.2797916666667 L 308.40207270123 231.48604166666672 L 311.26804100636 239.1579166666667 L 314.13400931149 271.6355208333333 L 316.99997761662 273.57906249999996 L 319.86594592175 245.85802083333334 L 322.73191422688 263.19645833333334 L 325.59788253201 245.96031250000004 L 328.46385083714 232.25322916666664 L 331.32981914227 236.54947916666669 L 334.1957874474 252.66041666666666 L 337.06175575253 288.7182291666667 L 339.92772405766 232.76468750000004 L 342.79369236279 230.20739583333335 L 345.65966066792 234.81052083333333 L 348.52562897305 215.32395833333334 L 351.39159727818 237.06093750000002 L 354.25756558331 242.8404166666667 L 357.12353388844 272.96531250000004 L 359.98950219357 225.91114583333336 L 362.8554704987 223.66072916666673 L 365.72143880383 228.315 L 368.58740710896 268.7713541666667 L 371.45337541409 252.96729166666668 L 374.31934371922 292.70760416666667 L 377.18531202435 434.1769791666667 L 380.05128032948 257.9795833333333 L 382.91724863461 230.0028125 L 385.78321693974 240.02739583333334 L 388.64918524487 238.8510416666667 L 391.51515355 228.315 L 394.38112185513 302.52760416666666 L 397.24709016027 330.40208333333334 L 400.1130584654 261.9178125 L 402.97902677053 213.27812500000005 L 405.84499507566 211.59031250000004 L 408.71096338079 197.6275 L 411.57693168592 226.78062500000004 L 414.44289999105 256.6497916666667 L 417.30886829618 339.35260416666665 L 420.17483660131 218.75072916666664 L 423.04080490644 217.83010416666667 L 425.90677321157 212.15291666666673 L 428.7727415167 227.34322916666667 L 431.63870982183 221.61489583333332 L 434.50467812696 246.93208333333337 L 437.37064643209 299.3565625 L 440.23661473722 241.3571875 L 443.10258304235 221.61489583333332 L 445.96855134748 212.40864583333337 L 448.83451965261 221.0522916666667 L 451.70048795774 219.51791666666668 L 454.56645626287 239.61822916666668 L 457.432424568 264.3216666666667 L 460.29839287313 212.15291666666673 L 463.16436117826 219.31333333333333 L 466.03032948339 219.51791666666668 L 468.89629778852 211.33458333333334 L 471.76226609365 234.29906250000005 L 474.62823439878 233.32729166666672 L 477.49420270391 253.58104166666666 L 480.36017100904 218.39270833333336 L 483.22613931417 214.09645833333337 L 486.0921076193 211.84604166666668 L 488.95807592443 211.84604166666668 L 491.82404422956 224.83708333333334 L 494.69001253469 255.83145833333333 L 497.55598083982 279.25625 L 500.42194914495 230.36083333333335 L 503.28791745009 199.0084375 L 506.15388575522 202.28177083333333 L 509.01985406035 217.83010416666667 L 511.88582236548 211.84604166666668 L 514.75179067061 225.14395833333333 L 517.61775897574 284.6777083333333 L 520.48372728087 226.21802083333336 L 523.349695586 199.05958333333336 L 526.21566389113 228.46843750000005 L 529.08163219626 216.70489583333335 L 531.94760050139 229.59364583333337 L 534.81356880652 260.536875 L 537.67953711165 295.4183333333333 L 540.54550541678 210.56739583333336 L 543.41147372191 230.25854166666664 L 546.27744202704 285.34260416666666 L 549.14341033217 216.96062500000005 L 552.0093786373 221.66604166666667 L 554.87534694243 263.5544791666667 L 557.74131524756 290.04802083333334 L 560.60728355269 239.2090625 L 563.47325185782 215.47739583333333 L 566.33922016295 201.61687500000005 L 569.20518846808 239.3625 L 572.07115677321 235.27083333333334 L 574.93712507834 241.20374999999999 L 577.80309338347 258.33760416666667 L 580.6690616886 215.68197916666668 L 583.53502999373 202.38406250000003 L 586.40099829886 217.67666666666668 L 589.26696660399 200.59395833333332 L 592.13293490912 205.91312500000004 L 594.99890321425 217.0629166666667 L 597.86487151938 229.6959375 L 600.73083982451 198.34354166666668 L 603.59680812964 199.77562500000005 L 606.46277643477 196.80916666666667 L 609.32874473991 206.57802083333337 L 612.19471304504 214.505625 L 615.06068135017 226.57604166666664 L 617.9266496553 238.95333333333335 L 620.79261796043 216.19343750000002 L 623.65858626556 201.77031250000005 L 626.52455457069 218.54614583333336 L 629.39052287582 225.60427083333337 L 632.25649118095 206.88489583333336 L 635.12245948608 242.5846875 L 637.98842779121 289.48541666666665 L 640.85439609634 259.46281250000004 L 643.72036440147 221.10343750000004 L 646.5863327066 224.2744791666667 L 649.45230101173 220.74541666666664 L 652.31826931686 224.93937500000004 L 655.18423762199 272.0446875 L 658.05020592712 257.0078125 L 660.91617423225 225.14395833333333 L 663.78214253738 216.55145833333336 L 666.64811084251 215.93770833333332 L 669.51407914764 211.79489583333333 L 672.38004745277 211.07885416666664 L 675.2460157579 241.0503125 L 678.11198406303 291.0709375 L 680.97795236816 223.30270833333333 L 683.84392067329 207.75437500000004 L 686.70988897842 215.98885416666673 L 689.57585728355 220.95000000000005 L 692.44182558868 217.67666666666668 L 695.30779389381 234.09447916666664 L 698.17376219894 257.2635416666667 L 701.03973050407 220.1828125 L 703.9056988092 204.02072916666668 L 706.77166711433 211.3857291666667 L 709.63763541946 208.36812499999996 L 712.50360372459 211.99947916666667 L 715.36957202973 217.42093750000004 L 718.23554033486 243.24958333333336 L 721.10150863999 180.135625 L 723.96747694512 199.0084375 L 726.83344525025 210.87427083333336 L 729.69941355538 209.85135416666668 L 732.56538186051 202.94666666666666 L 735.43135016564 222.99583333333334 L 738.29731847077 228.87760416666669 L 741.1632867759 198.80385416666667 L 744.02925508103 204.9413541666667 L 746.89522338616 219.46677083333333 L 749.76119169129 225.19510416666668 L 752.62715999642 202.28177083333333 L 755.49312830155 227.08750000000003 L 758.35909660668 241.71520833333338 L 761.22506491181 190.31364583333334 L 764.09103321694 191.6434375 L 766.95700152207 189.13729166666667 L 769.8229698272 201.56572916666664 L 772.68893813233 209.18645833333335 L 775.55490643746 218.08583333333337 L 778.42087474259 250.2565625 L 781.28684304772 181.61885416666667 L 784.15281135285 189.7510416666667 L 787.01877965798 242.48239583333333 L 789.88474796311 253.47875000000002 L 792.75071626824 195.78625 L 795.61668457337 198.80385416666667 L 798.4826528785 214.71020833333336 L 801.34862118363 211.84604166666668 L 804.21458948876 213.12468750000005 L 807.08055779389 216.44916666666666 L 809.94652609902 208.72614583333336 L 812.81249440415 171.90114583333337 L 815.67846270928 183.71583333333336 L 818.54443101441 197.98552083333334 L 821.41039931955 111.54906250000005 L 824.27636762468 172.3103125 L 827.14233592981 179.67531250000002 L 830.00830423494 193.99614583333334 L 832.87427254007 216.346875 L 835.7402408452 209.3910416666667 L 838.60620915033 195.8885416666667 L 841.47217745546 153.74437500000005 L 844.33814576059 163.5132291666667 L 847.20411406572 161.56968750000004 L 850.07008237085 161.0582291666667 L 852.93605067598 165.81479166666668 L 855.80201898111 175.12333333333333 L 858.66798728624 190.72281250000003 L 861.53395559137 153.8466666666667 L 864.3999238965 97.893125 L 867.26589220163 137.22427083333332 L 870.13186050676 165.71250000000003 L 872.99782881189 184.32958333333335 L 875.86379711702 192.41062499999998 L 878.72976542215 181.41427083333332 L 881.71514907333 148.0160416666667 L 884.58111737846 190.51822916666669 L 887.44708568359 199.3153125 L 890.31305398872 135.02500000000003 L 893.17902229385 161.87656250000003 L 896.04499059898 169.49729166666668 L 898.91095890411 186.88687500000003 L 901.77692720924 173.84468750000002 L 904.64289551437 90.78385416666669 L 907.5088638195 121.21562500000005 L 910.37483212463 103.416875 L 913.24080042976 124.48895833333336 L 916.10676873489 164.58729166666666 L 918.97273704002 178.80583333333334 L 921.83870534515 164.38270833333337 L 924.70467365028 162.950625 L 927.57064195541 148.1694791666667 L 930.43661026054 194.55875000000003 L 933.30257856567 244.63052083333335 L 936.1685468708 206.83375 L 939.03451517593 369.88666666666666 L 941.90048348106 195.22364583333336 L 944.76645178619 172.156875 L 947.63242009132 136.0990625 L 950.49838839645 165.0476041666667 L 953.36435670158 149.70385416666676 L 956.23032500672 170.6225 L 959.09629331185 209.08416666666665 L 961.96226161698 159.6772916666667 L 964.82822992211 149.2946875 L 967.69419822724 184.0738541666667 L 970.56016653237 226.93406250000004 L 973.4261348375 170.7759375 L 976.29210314263 158.65437500000007 L 979.15807144776 172.5660416666667 L 982.02403975289 118.40260416666672 L 984.89000805802 69.91635416666668 L 987.75597636315 174.2538541666667 L 990.62194466828 212.664375 L 993.48791297341 184.89218750000003 L 996.35388127854 203.5604166666667 L 999.21984958367 220.02937500000002 L 1002.0858178888 125.56302083333333 L 1004.9517861939 116.61250000000001 L 1007.8177544991 61.06812500000001 L 1010.6837228042 113.2880208333334 L 1013.5496911093 96.87020833333332 L 1016.4156594145 128.9386458333334 L 1019.2816277196 144.79385416666668 L 1022.1475960247 74.62177083333336 L 1025.0135643298 118.50489583333336 L 1027.879532635 163.41093750000005 L 1030.7455009401 136.9173958333334 L 1033.6114692452 173.0263541666667 L 1036.4774375504 325.0317708333333 L 1039.3434058555 382.0082291666667 L 1042.2093741606 430.9036458333333 L 1045.0753424658 345.3366666666667 L 1047.9413107709 157.01770833333336 L 1050.807279076 130.72875000000005 L 1053.6732473811 153.4886458333333 L 1056.5392156863 182.6929166666667" class="highcharts-graph" data-z-index="1" stroke="rgb(100,185,228)" stroke-width="2" stroke-linejoin="round" stroke-linecap="round"></path></g><g data-z-index="0.1" class="highcharts-markers highcharts-series-1 highcharts-line-series " transform="translate(116,30) scale(1 1)" clip-path="none"></g><g data-z-index="0.1" class="highcharts-series highcharts-series-2 highcharts-line-series " visibility="hidden" transform="translate(116,30) scale(1 1)" clip-path="url(#highcharts-hkx0mim-34293)"><path fill="none" d="M 10.460784313725 185.60782 L 13.326752618856 216.3481516 L 16.192720923986 208.99041839999995 L 19.058689229116 113.84041219999995 L 21.924657534247 91.91726219999998 L 24.790625839377 88.93276779999997 L 27.656594144507 96.9589484 L 30.522562449637 123.54787499999998 L 33.388530754768 122.75412439999997 L 36.254499059898 187.0672684 L 39.120467365028 78.26500719999996 L 41.986435670158 70.74210159999996 L 44.852403975289 57.06814439999994 L 47.718372280419 46.72680059999999 L 50.584340585549 33.48295939999997 L 53.45030889068 60.62092219999994 L 56.31627719581 73.20564499999995 L 59.18224550094 9.698035599999969 L 62.04821380607 -1.6100872000000095 L 64.914182111201 2.358469399999933 L 67.780150416331 25.0217528 L 70.646118721461 28.271387199999936 L 73.512087026591 93.89108219999997 L 76.378055331722 135.6538728 L 79.244023636852 94.68768059999996 L 82.109991941982 123.02044280000001 L 84.975960247113 178.84675 L 87.841928552243 139.34864779999998 L 90.707896857373 182.61969219999997 L 93.573865162503 225.44431939999998 L 96.439833467634 220.64970439999996 L 99.305801772764 183.886865 L 102.17177007789 213.1431 L 105.03773838302 157.43954279999997 L 107.90370668815 87.13816279999998 L 110.76967499328 84.28466719999994 L 113.63564329842 197.1066472 L 116.50161160355 234.4807816 L 119.36757990868 215.41112719999995 L 122.23354821381 176.3823228 L 125.09951651894 101.23359439999996 L 127.96548482407 91.22495219999996 L 130.8314531292 61.92452719999994 L 133.69742143433 120.45987779999996 L 136.56338973946 175.8373128 L 139.42935804459 78.74864219999995 L 142.29532634972 43.811537199999975 L 145.16129465485 59.87371839999997 L 148.02726295998 59.236302199999955 L 150.89323126511 54.83694219999995 L 153.75919957024 199.80960219999997 L 156.62516787537 252.170235 L 159.4911361805 169.92528 L 162.35710448563 97.16359719999997 L 165.22307279076 99.34324439999995 L 168.08904109589 81.40455939999998 L 170.95500940102 84.28054279999998 L 173.82097770615 149.82904279999997 L 176.68694601128 163.6388106 L 179.55291431641 90.25031719999998 L 182.41888262154 81.54901159999997 L 185.28485092667 99.41198439999994 L 188.1508192318 72.51127279999997 L 191.01678753693 113.82283439999998 L 193.88275584206 159.89827439999993 L 196.74872414719 180.74809839999995 L 199.61469245232 89.99912159999997 L 202.48066075745 59.26978839999998 L 205.34662906258 96.05639219999995 L 208.21259736771 89.9916584 L 211.07856567284 88.38490999999999 L 213.94453397797 143.62898939999997 L 216.81050228311 175.60939059999998 L 219.67647058824 105.59072839999999 L 222.54243889337 81.25234939999996 L 225.4084071985 88.05711839999998 L 228.27437550363 82.02930779999997 L 231.14034380876 90.11283719999994 L 234.00631211389 126.67839279999998 L 236.87228041902 175.11190939999994 L 239.73824872415 122.24102939999995 L 242.60421702928 91.67382439999994 L 245.47018533441 93.28882159999995 L 248.33615363954 101.91932499999996 L 251.20212194467 149.58315 L 254.0680902498 235.16562839999997 L 256.93405855493 290.619463 L 259.68061151401 286.77179060000003 L 262.54657981914 205.363205 L 265.41254812427 146.3830084 L 268.2785164294 121.31834219999996 L 271.14448473453 121.63464439999996 L 274.01045303966 213.75272560000002 L 276.87642134479 248.56796439999997 L 279.74238964992 153.90964559999998 L 282.60835795505 129.00612560000002 L 285.47432626018 176.3041556 L 288.34029456531 163.4992684 L 291.20626287045 125.42634279999999 L 294.07223117558 168.66419559999997 L 296.93819948071 232.42388439999996 L 299.80416778584 176.68713559999998 L 302.67013609097 126.67633059999997 L 305.5361043961 107.69220840000003 L 308.40207270123 114.14807279999997 L 311.26804100636 138.9660606 L 314.13400931149 225.22494060000002 L 316.99997761662 236.04088499999997 L 319.86594592175 162.29592559999998 L 322.73191422688 170.82547939999995 L 325.59788253201 161.97029439999994 L 328.46385083714 146.12729559999997 L 331.32981914227 140.03241439999994 L 334.1957874474 190.2625 L 337.06175575253 227.54825439999996 L 339.92772405766 132.74597439999997 L 342.79369236279 116.801535 L 345.65966066792 124.18087219999995 L 348.52562897305 111.19185999999996 L 351.39159727818 140.04675159999994 L 354.25756558331 181.4862678 L 357.12353388844 225.39846 L 359.98950219357 161.7951056 L 362.8554704987 142.40639939999994 L 365.72143880383 136.33479159999996 L 368.58740710896 242.60270719999997 L 371.45337541409 242.9226428 L 374.31934371922 284.33643059999997 L 377.18531202435 319.42496 L 380.05128032948 234.34732780000002 L 382.91724863461 185.92127439999996 L 385.78321693974 189.05424719999996 L 388.64918524487 187.68887439999997 L 391.51515355 188.75925439999997 L 394.38112185513 271.97845159999997 L 397.24709016027 294.1916844 L 400.1130584654 243.28519719999997 L 402.97902677053 171.49156999999997 L 405.84499507566 149.8859006 L 408.71096338079 150.6932028 L 411.57693168592 167.56032939999994 L 414.44289999105 243.3870306 L 417.30886829618 275.4787906 L 420.17483660131 159.7816128 L 423.04080490644 137.7619322 L 425.90677321157 125.27491839999999 L 428.7727415167 168.4060278 L 431.63870982183 169.74567219999994 L 434.50467812696 236.43820219999998 L 437.37064643209 265.4497228 L 440.23661473722 202.02686 L 443.10258304235 168.31273779999998 L 445.96855134748 167.99977439999998 L 448.83451965261 183.2882378 L 451.70048795774 174.04928719999998 L 454.56645626287 233.59079499999996 L 457.432424568 269.0160522 L 460.29839287313 195.93806719999998 L 463.16436117826 175.85243559999998 L 466.03032948339 178.96174219999995 L 468.89629778852 174.91423279999998 L 471.76226609365 209.75598559999997 L 474.62823439878 227.83706060000003 L 477.49420270391 264.82163560000004 L 480.36017100904 178.2874028 L 483.22613931417 159.91300439999998 L 486.0921076193 150.48541159999996 L 488.95807592443 151.19362999999998 L 491.82404422956 174.4751806 L 494.69001253469 243.98447939999997 L 497.55598083982 275.86019939999994 L 500.42194914495 220.0584422 L 503.28791745009 177.8626878 L 506.15388575522 173.0835884 L 509.01985406035 179.53984559999998 L 511.88582236548 188.95270839999995 L 514.75179067061 245.7217356 L 517.61775897574 289.15765780000004 L 520.48372728087 211.90047719999995 L 523.349695586 188.0039 L 526.21566389113 202.04649999999998 L 529.08163219626 184.20031939999996 L 531.94760050139 211.0424056 L 534.81356880652 262.0691878 L 537.67953711165 288.0685216 L 540.54550541678 207.09515839999995 L 543.41147372191 219.02154839999997 L 546.27744202704 256.44154219999996 L 549.14341033217 200.7687216 L 552.0093786373 190.83530059999998 L 554.87534694243 252.7312516 L 557.74131524756 268.07618 L 560.60728355269 207.19424219999996 L 563.47325185782 171.02020999999996 L 566.33922016295 158.24114939999998 L 569.20518846808 210.65206060000003 L 572.07115677321 222.8248344 L 574.93712507834 229.2507478 L 577.80309338347 236.61250719999998 L 580.6690616886 182.02067219999998 L 583.53502999373 173.72277219999995 L 586.40099829886 177.18638439999995 L 589.26696660399 166.0177056 L 592.13293490912 165.03865159999998 L 594.99890321425 208.57189 L 597.86487151938 227.5331316 L 600.73083982451 179.079975 L 603.59680812964 170.983385 L 606.46277643477 156.1980984 L 609.32874473991 154.26895939999997 L 612.19471304504 166.8822584 L 615.06068135017 214.883695 L 617.9266496553 214.0068672 L 620.79261796043 187.6622622 L 623.65858626556 168.435095 L 626.52455457069 173.03006939999995 L 629.39052287582 184.09966439999994 L 632.25649118095 189.19005779999998 L 635.12245948608 256.05041159999996 L 637.98842779121 299.512455 L 640.85439609634 236.14360219999998 L 643.72036440147 209.89189439999996 L 646.5863327066 214.08748939999998 L 649.45230101173 210.8735016 L 652.31826931686 217.48923559999997 L 655.18423762199 265.2819972 L 658.05020592712 262.4988128 L 660.91617423225 232.87393499999996 L 663.78214253738 183.31897439999995 L 666.64811084251 176.71463160000002 L 669.51407914764 163.02388219999995 L 672.38004745277 171.12371279999996 L 675.2460157579 240.2500316 L 678.11198406303 271.89370499999995 L 680.97795236816 197.17126279999997 L 683.84392067329 178.31273839999994 L 686.70988897842 168.61391719999995 L 689.57585728355 172.30378219999994 L 692.44182558868 171.97726719999997 L 695.30779389381 211.25441939999996 L 698.17376219894 235.427135 L 701.03973050407 182.87255719999996 L 703.9056988092 164.5394028 L 706.77166711433 153.97435939999997 L 709.63763541946 152.91664719999994 L 712.50360372459 167.49895439999995 L 715.36957202973 217.13375159999998 L 718.23554033486 232.24869560000002 L 721.10150863999 160.62652559999998 L 723.96747694512 156.64785439999997 L 726.83344525025 152.97389779999997 L 729.69941355538 159.92852 L 732.56538186051 150.6388 L 735.43135016564 188.81522839999997 L 738.29731847077 214.3857228 L 741.1632867759 156.12287719999995 L 744.02925508103 168.7104478 L 746.89522338616 168.04435719999998 L 749.76119169129 183.42080779999998 L 752.62715999642 150.32946999999996 L 755.49312830155 192.2646016 L 758.35909660668 203.6086656 L 761.22506491181 116.02329999999995 L 764.09103321694 114.05438999999996 L 766.95700152207 110.2470778 L 769.8229698272 123.3297728 L 772.68893813233 133.07327499999997 L 775.55490643746 181.09513719999995 L 778.42087474259 215.59849279999997 L 781.28684304772 138.2958456 L 784.15281135285 131.63140439999995 L 787.01877965798 209.281385 L 789.88474796311 221.09199719999998 L 792.75071626824 244.314235 L 795.61668457337 186.33567839999995 L 798.4826528785 210.5899 L 801.34862118363 196.25761 L 804.21458948876 165.86677219999996 L 807.08055779389 157.908055 L 809.94652609902 126.2774422 L 812.81249440415 105.34287159999997 L 815.67846270928 137.79630219999996 L 818.54443101441 148.3539806 L 821.41039931955 94.78097059999999 L 824.27636762468 98.12801939999997 L 827.14233592981 100.6954584 L 830.00830423494 120.60550840000002 L 832.87427254007 157.19158779999998 L 835.7402408452 167.50347159999995 L 838.60620915033 180.46744280000001 L 841.47217745546 107.72048999999998 L 844.33814576059 111.99670719999995 L 847.20411406572 96.9732856 L 850.07008237085 92.02930839999999 L 852.93605067598 98.56373279999997 L 855.80201898111 136.12896439999997 L 858.66798728624 158.16337499999997 L 861.53395559137 104.19137840000002 L 864.3999238965 99.08095219999996 L 867.26589220163 105.3497456 L 870.13186050676 107.19678939999994 L 872.99782881189 156.42160159999997 L 875.86379711702 189.96259719999995 L 878.72976542215 160.98358080000003 L 881.71514907333 100.77529499999997 L 884.58111737846 129.6137872 L 887.44708568359 138.91332719999997 L 890.31305398872 65.54437559999997 L 893.17902229385 77.80346719999994 L 896.04499059898 101.3751006 L 898.91095890411 124.87111999999996 L 901.77692720924 71.30959939999997 L 904.64289551437 45.48339219999997 L 907.5088638195 50.420789999999954 L 910.37483212463 46.93468999999999 L 913.24080042976 56.29972939999993 L 916.10676873489 98.41682559999998 L 918.97273704002 116.34902939999995 L 921.83870534515 70.84963060000001 L 924.70467365028 91.08953439999993 L 927.57064195541 110.46724219999999 L 930.43661026054 147.85856159999997 L 933.30257856567 186.8332578 L 936.1685468708 180.58164939999995 L 939.03451517593 271.70142939999994 L 941.90048348106 149.41994159999996 L 944.76645178619 88.92255499999999 L 947.63242009132 68.22199499999999 L 950.49838839645 79.72573219999998 L 953.36435670158 64.60744939999995 L 956.23032500672 113.42551719999994 L 959.09629331185 171.29104560000002 L 961.96226161698 73.06944159999995 L 964.82822992211 51.82622839999999 L 967.69419822724 99.77571719999997 L 970.56016653237 146.73819779999997 L 973.4261348375 100.08465439999998 L 976.29210314263 77.6401606 L 979.15807144776 79.5235384 L 982.02403975289 29.802030599999966 L 984.89000805802 21.04956279999999 L 987.75597636315 46.421987799999954 L 990.62194466828 98.96222840000001 L 993.48791297341 102.29867159999998 L 996.35388127854 152.51481280000002 L 999.21984958367 188.89869839999994 L 1002.0858178888 67.64919439999994 L 1004.9517861939 33.093399999999974 L 1007.8177544991 40.522622799999965 L 1010.6837228042 46.81311840000001 L 1013.5496911093 49.503798399999994 L 1016.4156594145 61.99483839999999 L 1019.2816277196 99.97368840000001 L 1022.1475960247 34.179688399999975 L 1025.0135643298 41.58072779999998 L 1027.879532635 75.34886 L 1030.7455009401 69.76992159999998 L 1033.6114692452 137.52173499999998 L 1036.4774375504 254.0932856 L 1039.3434058555 288.9146128 L 1042.2093741606 288.347115 L 1045.0753424658 244.72421999999997 L 1047.9413107709 159.1044256 L 1050.807279076 111.73608439999998 L 1053.6732473811 120.16900939999994 L 1056.5392156863 155.46042" class="highcharts-graph" data-z-index="1" stroke="rgb(115,62,136)" stroke-width="2" stroke-linejoin="round" stroke-linecap="round"></path></g><g data-z-index="0.1" class="highcharts-markers highcharts-series-2 highcharts-line-series " visibility="hidden" transform="translate(116,30) scale(1 1)" clip-path="none"></g></g><text x="643" text-anchor="middle" class="highcharts-title" data-z-index="4" style="color:#333333;font-size:18px;fill:#333333;" y="44"></text><text x="643" text-anchor="middle" class="highcharts-subtitle" data-z-index="4" style="color:#666666;fill:#666666;" y="44"></text><g class="highcharts-legend" data-z-index="7" transform="translate(478,578)"><rect fill="none" class="highcharts-legend-box" rx="0" ry="0" x="0" y="0" width="330" height="35" visibility="visible"></rect><g data-z-index="1"><g><g class="highcharts-legend-item highcharts-line-series highcharts-color-undefined highcharts-series-1" data-z-index="1" transform="translate(8,3)"><path fill="none" d="M 0 11 L 14 11" class="highcharts-graph" stroke="rgb(100,185,228)" stroke-width="2"></path><text x="19" style="color:#333333;cursor:pointer;font-size:12px;font-weight:bold;fill:#333333;" text-anchor="start" data-z-index="2" y="15"><tspan>Strompreis</tspan></text></g><g class="highcharts-legend-item highcharts-line-series highcharts-color-undefined highcharts-series-2 highcharts-legend-item-hidden" data-z-index="1" transform="translate(114,3)"><path fill="none" d="M 0 11 L 14 11" class="highcharts-graph" stroke="#cccccc" stroke-width="2"></path><text x="19" y="15" style="color:#cccccc;cursor:pointer;font-size:12px;font-weight:bold;fill:#cccccc;" text-anchor="start" data-z-index="2"><tspan>Emissionen der Stromerzeugung</tspan></text></g></g></g></g><g class="highcharts-axis-labels highcharts-xaxis-labels " data-z-index="7"><text x="157.7131922293807" style="color:#666666;cursor:default;font-size:11px;fill:#666666;" text-anchor="end" transform="translate(0,0) rotate(-45 157.7131922293807 537)" y="537" opacity="1"><tspan>11. Jan</tspan></text><text x="197.83674850120067" style="color:#666666;cursor:default;font-size:11px;fill:#666666;" text-anchor="end" transform="translate(0,0) rotate(-45 197.83674850120067 537)" y="537" opacity="1"><tspan>25. Jan</tspan></text><text x="237.96030477303069" style="color:#666666;cursor:default;font-size:11px;fill:#666666;" text-anchor="end" transform="translate(0,0) rotate(-45 237.96030477303069 537)" y="537" opacity="1"><tspan>8. Feb</tspan></text><text x="278.08386104485066" style="color:#666666;cursor:default;font-size:11px;fill:#666666;" text-anchor="end" transform="translate(0,0) rotate(-45 278.08386104485066 537)" y="537" opacity="1"><tspan>22. Feb</tspan></text><text x="318.20741731667067" style="color:#666666;cursor:default;font-size:11px;fill:#666666;" text-anchor="end" transform="translate(0,0) rotate(-45 318.20741731667067 537)" y="537" opacity="1"><tspan>7. Mär</tspan></text><text x="358.3309735885007" style="color:#666666;cursor:default;font-size:11px;fill:#666666;" text-anchor="end" transform="translate(0,0) rotate(-45 358.3309735885007 537)" y="537" opacity="1"><tspan>21. Mär</tspan></text><text x="398.3351145142707" style="color:#666666;cursor:default;font-size:11px;fill:#666666;" text-anchor="end" transform="translate(0,0) rotate(-45 398.3351145142707 537)" y="537" opacity="1"><tspan>4. Apr</tspan></text><text x="438.45867078610064" style="color:#666666;cursor:default;font-size:11px;fill:#666666;" text-anchor="end" transform="translate(0,0) rotate(-45 438.45867078610064 537)" y="537" opacity="1"><tspan>18. Apr</tspan></text><text x="478.58222705792065" style="color:#666666;cursor:default;font-size:11px;fill:#666666;" text-anchor="end" transform="translate(0,0) rotate(-45 478.58222705792065 537)" y="537" opacity="1"><tspan>2. Mai</tspan></text><text x="518.7057833297506" style="color:#666666;cursor:default;font-size:11px;fill:#666666;" text-anchor="end" transform="translate(0,0) rotate(-45 518.7057833297506 537)" y="537" opacity="1"><tspan>16. Mai</tspan></text><text x="558.8293396015706" style="color:#666666;cursor:default;font-size:11px;fill:#666666;" text-anchor="end" transform="translate(0,0) rotate(-45 558.8293396015706 537)" y="537" opacity="1"><tspan>30. Mai</tspan></text><text x="598.9528958733906" style="color:#666666;cursor:default;font-size:11px;fill:#666666;" text-anchor="end" transform="translate(0,0) rotate(-45 598.9528958733906 537)" y="537" opacity="1"><tspan>13. Jun</tspan></text><text x="639.0764521452206" style="color:#666666;cursor:default;font-size:11px;fill:#666666;" text-anchor="end" transform="translate(0,0) rotate(-45 639.0764521452206 537)" y="537" opacity="1"><tspan>27. Jun</tspan></text><text x="679.2000084170406" style="color:#666666;cursor:default;font-size:11px;fill:#666666;" text-anchor="end" transform="translate(0,0) rotate(-45 679.2000084170406 537)" y="537" opacity="1"><tspan>11. Jul</tspan></text><text x="719.3235646888606" style="color:#666666;cursor:default;font-size:11px;fill:#666666;" text-anchor="end" transform="translate(0,0) rotate(-45 719.3235646888606 537)" y="537" opacity="1"><tspan>25. Jul</tspan></text><text x="759.4471209606907" style="color:#666666;cursor:default;font-size:11px;fill:#666666;" text-anchor="end" transform="translate(0,0) rotate(-45 759.4471209606907 537)" y="537" opacity="1"><tspan>8. Aug</tspan></text><text x="799.5706772325107" style="color:#666666;cursor:default;font-size:11px;fill:#666666;" text-anchor="end" transform="translate(0,0) rotate(-45 799.5706772325107 537)" y="537" opacity="1"><tspan>22. Aug</tspan></text><text x="839.6942335043407" style="color:#666666;cursor:default;font-size:11px;fill:#666666;" text-anchor="end" transform="translate(0,0) rotate(-45 839.6942335043407 537)" y="537" opacity="1"><tspan>5. Sep</tspan></text><text x="879.8177897761607" style="color:#666666;cursor:default;font-size:11px;fill:#666666;" text-anchor="end" transform="translate(0,0) rotate(-45 879.8177897761607 537)" y="537" opacity="1"><tspan>19. Sep</tspan></text><text x="919.9413460479807" style="color:#666666;cursor:default;font-size:11px;fill:#666666;" text-anchor="end" transform="translate(0,0) rotate(-45 919.9413460479807 537)" y="537" opacity="1"><tspan>3. Okt</tspan></text><text x="960.0649023198107" style="color:#666666;cursor:default;font-size:11px;fill:#666666;" text-anchor="end" transform="translate(0,0) rotate(-45 960.0649023198107 537)" y="537" opacity="1"><tspan>17. Okt</tspan></text><text x="1000.3078739376807" style="color:#666666;cursor:default;font-size:11px;fill:#666666;" text-anchor="end" transform="translate(0,0) rotate(-45 1000.3078739376807 537)" y="537" opacity="1"><tspan>31. Okt</tspan></text><text x="1040.4314302095506" style="color:#666666;cursor:default;font-size:11px;fill:#666666;" text-anchor="end" transform="translate(0,0) rotate(-45 1040.4314302095506 537)" y="537" opacity="1"><tspan>14. Nov</tspan></text><text x="1080.5549864813506" style="color:#666666;cursor:default;font-size:11px;fill:#666666;" text-anchor="end" transform="translate(0,0) rotate(-45 1080.5549864813506 537)" y="537" opacity="1"><tspan>28. Nov</tspan></text><text x="1120.6785427531506" style="color:#666666;cursor:default;font-size:11px;fill:#666666;" text-anchor="end" transform="translate(0,0) rotate(-45 1120.6785427531506 537)" y="537" opacity="1"><tspan>12. Dez</tspan></text><text x="1160.8020990249506" style="color:#666666;cursor:default;font-size:11px;fill:#666666;" text-anchor="end" transform="translate(0,0) rotate(-45 1160.8020990249506 537)" y="537" opacity="1"><tspan>26. Dez</tspan></text></g><g class="highcharts-axis-labels highcharts-yaxis-labels " data-z-index="7"><text x="101" style="color:#666666;cursor:default;font-size:11px;fill:#666666;" text-anchor="end" transform="translate(0,0)" y="526" opacity="1"><tspan>0 t</tspan></text><text x="101" style="color:#666666;cursor:default;font-size:11px;fill:#666666;" text-anchor="end" transform="translate(0,0)" y="428" opacity="1"><tspan>10.000 t</tspan></text><text x="101" style="color:#666666;cursor:default;font-size:11px;fill:#666666;" text-anchor="end" transform="translate(0,0)" y="330" opacity="1"><tspan>20.000 t</tspan></text><text x="101" style="color:#666666;cursor:default;font-size:11px;fill:#666666;" text-anchor="end" transform="translate(0,0)" y="231" opacity="1"><tspan>30.000 t</tspan></text><text x="101" style="color:#666666;cursor:default;font-size:11px;fill:#666666;" text-anchor="end" transform="translate(0,0)" y="133" opacity="1"><tspan>40.000 t</tspan></text><text x="101" style="color:#666666;cursor:default;font-size:11px;fill:#666666;" text-anchor="end" transform="translate(0,0)" y="35" opacity="1"><tspan>50.000 t</tspan></text></g><g class="highcharts-axis-labels highcharts-yaxis-labels " data-z-index="7"><text x="1198" style="color:#666666;cursor:default;font-size:11px;fill:#666666;" text-anchor="start" transform="translate(0,0)" y="526" opacity="1"><tspan>-24 €</tspan></text><text x="1198" style="color:#666666;cursor:default;font-size:11px;fill:#666666;" text-anchor="start" transform="translate(0,0)" y="465" opacity="1"><tspan>-12 €</tspan></text><text x="1198" style="color:#666666;cursor:default;font-size:11px;fill:#666666;" text-anchor="start" transform="translate(0,0)" y="403" opacity="1"><tspan>0 €</tspan></text><text x="1198" style="color:#666666;cursor:default;font-size:11px;fill:#666666;" text-anchor="start" transform="translate(0,0)" y="342" opacity="1"><tspan>12 €</tspan></text><text x="1198" style="color:#666666;cursor:default;font-size:11px;fill:#666666;" text-anchor="start" transform="translate(0,0)" y="281" opacity="1"><tspan>24 €</tspan></text><text x="1198" style="color:#666666;cursor:default;font-size:11px;fill:#666666;" text-anchor="start" transform="translate(0,0)" y="219" opacity="1"><tspan>36 €</tspan></text><text x="1198" style="color:#666666;cursor:default;font-size:11px;fill:#666666;" text-anchor="start" transform="translate(0,0)" y="158" opacity="1"><tspan>48 €</tspan></text><text x="1198" style="color:#666666;cursor:default;font-size:11px;fill:#666666;" text-anchor="start" transform="translate(0,0)" y="96" opacity="1"><tspan>60 €</tspan></text><text x="1198" style="color:#666666;cursor:default;font-size:11px;fill:#666666;" text-anchor="start" transform="translate(0,0)" y="35" opacity="1"><tspan>72 €</tspan></text></g><text x="1270" class="highcharts-credits" text-anchor="end" data-z-index="8" style="cursor:default;color:#999999;font-size:9px;fill:#999999;" y="638"><tspan>Agora Energiewende; Stand: 12.07.2019, 08:45</tspan></text></svg>